<svg width="512" height="512" viewBox="0 0 512 512" fill="none" xmlns="http://www.w3.org/2000/svg">
    <g id="monkey 1">
        <g id="Ear">
            <path id="Vector" d="M445.94 289.03C482.424 289.03 512 259.454 512 222.97C512 186.486 482.424 156.91 445.94 156.91C409.456 156.91 379.88 186.486 379.88 222.97C379.88 259.454 409.456 289.03 445.94 289.03Z" fill="#965A50"/>
            <path id="Vector_2" d="M445.94 264.26C468.744 264.26 487.23 245.774 487.23 222.97C487.23 200.166 468.744 181.68 445.94 181.68C423.136 181.68 404.65 200.166 404.65 222.97C404.65 245.774 423.136 264.26 445.94 264.26Z" fill="#EBC9A0"/>
        </g>
        <g id="Ear2">
            <path id="Vector_3" d="M66.06 289.03C102.544 289.03 132.12 259.454 132.12 222.97C132.12 186.486 102.544 156.91 66.06 156.91C29.5761 156.91 0 186.486 0 222.97C0 259.454 29.5761 289.03 66.06 289.03Z" fill="#965A50"/>
            <path id="Vector_4" d="M66.06 264.26C88.8638 264.26 107.35 245.774 107.35 222.97C107.35 200.166 88.8638 181.68 66.06 181.68C43.2561 181.68 24.77 200.166 24.77 222.97C24.77 245.774 43.2561 264.26 66.06 264.26Z" fill="#EBC9A0"/>
        </g>
        <g id="Monkey">
            <path id="Vector_5" d="M442.589 262.049C434.223 247.613 429.42 231.394 429.42 214.709V214.708C429.42 142.335 385.056 80.378 322.065 54.39V24.774L280.775 41.29L272.517 8.258C250.736 15.519 232.156 30.756 218.161 45.556C140.604 62.839 82.581 131.946 82.581 214.71C82.581 231.395 77.778 247.614 69.412 262.05C56.692 283.998 49.549 308.532 49.549 334.452C49.549 427.948 141.98 503.742 256.001 503.742C370.022 503.742 462.453 427.948 462.453 334.452C462.452 308.532 455.308 283.997 442.589 262.049Z" fill="#AF6E5A"/>
            <path id="Vector_6" d="M140.387 364.043C140.387 333.803 147.53 305.179 160.25 279.574C168.617 262.733 173.419 243.81 173.419 224.344C173.419 140.309 217.388 68.388 279.912 37.842L272.516 8.258C250.735 15.519 232.155 30.756 218.159 45.556C140.604 62.839 82.581 131.946 82.581 214.71C82.581 231.395 77.779 247.614 69.412 262.05C56.692 283.998 49.549 308.532 49.549 334.452C49.549 409.917 109.781 473.822 192.964 495.675C160.282 460.734 140.387 414.619 140.387 364.043Z" fill="#965A50"/>
            <path id="Vector_7" d="M256 470.71C324.412 470.71 379.871 426.343 379.871 371.613C379.871 360.259 377.457 349.368 373.036 339.227C366.626 324.52 368.808 307.64 379.106 295.338C392.24 279.647 399.014 258.461 395.439 235.703C390.529 204.444 365.257 179.217 333.991 174.35C310.099 170.631 287.954 178.318 272.088 192.789C267.578 196.902 261.788 198.959 256.001 198.959C250.211 198.959 244.42 196.903 239.91 192.789C224.044 178.318 201.899 170.631 178.007 174.35C146.741 179.216 121.47 204.444 116.559 235.703C112.984 258.46 119.758 279.646 132.892 295.338C143.19 307.641 145.372 324.52 138.962 339.227C134.542 349.369 132.127 360.26 132.127 371.613C132.129 426.342 187.588 470.71 256 470.71Z" fill="#FAEBC8"/>
            <path id="Vector_8" d="M132.129 371.612C132.129 390.134 138.597 407.407 149.653 422.237C143.715 403.826 140.387 384.321 140.387 364.042C140.387 333.802 147.53 305.178 160.25 279.573C168.617 262.732 173.419 243.809 173.419 224.343C173.419 207.036 175.379 190.287 178.887 174.263C178.592 174.305 178.304 174.303 178.008 174.349C146.742 179.215 121.472 204.443 116.56 235.701C112.985 258.459 119.76 279.645 132.893 295.336C143.191 307.638 145.374 324.517 138.964 339.225C134.543 349.368 132.129 360.259 132.129 371.612Z" fill="#F5DCB4"/>
            <g id="Group">
                <path id="Vector_9" d="M239.476 330.323C238.234 330.323 236.976 330.045 235.791 329.452L219.275 321.194C215.194 319.154 213.541 314.194 215.581 310.113C217.629 306.032 222.581 304.379 226.662 306.419L243.178 314.677C247.259 316.717 248.912 321.677 246.872 325.758C245.419 328.653 242.508 330.323 239.476 330.323Z" fill="#5D5360"/>
                <path id="Vector_10" d="M272.524 330.323C269.492 330.323 266.58 328.654 265.129 325.758C263.089 321.677 264.742 316.718 268.823 314.677L285.339 306.419C289.412 304.379 294.371 306.032 296.42 310.113C298.46 314.194 296.807 319.153 292.726 321.194L276.21 329.452C275.024 330.044 273.766 330.323 272.524 330.323Z" fill="#5D5360"/>
            </g>
            <path id="Vector_11" d="M182.319 363.355C177.318 363.355 173.378 367.786 174.071 372.739C179.197 409.356 213.924 437.677 256 437.677C298.077 437.677 332.803 409.356 337.929 372.739C338.622 367.786 334.682 363.355 329.681 363.355H182.319Z" fill="#4B3F4E"/>
            <path id="Vector_12" d="M189.774 273.096C176.092 273.096 165 262.004 165 248.322V240.064C165 226.382 176.092 215.29 189.774 215.29C203.456 215.29 214.548 226.382 214.548 240.064V248.322C214.549 262.004 203.457 273.096 189.774 273.096Z" fill="#4B3F4E"/>
            <path id="Vector_13" d="M188.677 215V243.903C188.677 250.744 194.223 256.29 201.064 256.29C207.905 256.29 213.451 250.744 213.451 243.903V239.774C213.452 226.091 202.36 215 188.677 215Z" fill="#5D5360"/>
            <path id="Vector_14" d="M188.68 239.778C193.241 239.778 196.938 236.081 196.938 231.52C196.938 226.959 193.241 223.262 188.68 223.262C184.119 223.262 180.422 226.959 180.422 231.52C180.422 236.081 184.119 239.778 188.68 239.778Z" fill="white"/>
            <path id="Vector_15" d="M330.323 272.516C316.641 272.516 305.549 261.424 305.549 247.742V239.484C305.549 225.802 316.641 214.71 330.323 214.71C344.005 214.71 355.097 225.802 355.097 239.484V247.742C355.097 261.424 344.005 272.516 330.323 272.516Z" fill="#4B3F4E"/>
            <path id="Vector_16" d="M330.323 214.71V243.613C330.323 250.454 335.869 256 342.71 256C349.551 256 355.097 250.454 355.097 243.613V239.484C355.097 225.801 344.005 214.71 330.323 214.71Z" fill="#5D5360"/>
            <path id="Vector_17" d="M330.32 239.488C334.881 239.488 338.578 235.791 338.578 231.23C338.578 226.669 334.881 222.972 330.32 222.972C325.759 222.972 322.062 226.669 322.062 231.23C322.062 235.791 325.759 239.488 330.32 239.488Z" fill="white"/>
        </g>
        <g id="Tongue">
            <g id="Group 1">
                <path id="Vector_18" d="M211 423.909C224.457 432.472 240.849 437.548 258.583 437.548C276.317 437.548 292.709 432.472 306.166 423.909C300.2 403.243 281.103 388 258.583 388C236.063 388 216.966 403.242 211 423.909Z" fill="#E6646E"/>
                <path id="Vector_19" d="M256 437.677C258.792 437.677 261.538 437.508 264.258 437.262V421.161C264.258 416.601 260.564 412.903 256 412.903C251.436 412.903 247.742 416.601 247.742 421.161V437.262C250.462 437.508 253.208 437.677 256 437.677Z" fill="#FF8087"/>
            </g>
        </g>
    </g>
</svg>
